/* XPM */
static char * test_xpm[] = {
"60 60 226 2",
"  	c None",
". 	c #FFFFFF",
"+ 	c #FEFEFE",
"@ 	c #FCFCFC",
"# 	c #C8C8C8",
"$ 	c #787878",
"% 	c #7F7F7F",
"& 	c #D4D4D4",
"* 	c #F5F5F5",
"= 	c #FDFDFD",
"- 	c #FAFAFA",
"; 	c #F7F7F7",
"> 	c #EFEFEF",
", 	c #4C4C4C",
"' 	c #000000",
") 	c #090909",
"! 	c #626262",
"~ 	c #C5C5C5",
"{ 	c #F4F4F4",
"] 	c #EEEEEE",
"^ 	c #FBFBFB",
"/ 	c #F9F9F9",
"( 	c #3F3F3F",
"_ 	c #080808",
": 	c #0A0A0A",
"< 	c #1C1C1C",
"[ 	c #8A8A8A",
"} 	c #F3F3F3",
"| 	c #8B8B8B",
"1 	c #1B1B1B",
"2 	c #111111",
"3 	c #191919",
"4 	c #797979",
"5 	c #E0E0E0",
"6 	c #929292",
"7 	c #0B0B0B",
"8 	c #040404",
"9 	c #6B6B6B",
"0 	c #F8F8F8",
"a 	c #C0C0C0",
"b 	c #969696",
"c 	c #8C8C8C",
"d 	c #939393",
"e 	c #CDCDCD",
"f 	c #393939",
"g 	c #020202",
"h 	c #0C0C0C",
"i 	c #696969",
"j 	c #F6F6F6",
"k 	c #E6E6E6",
"l 	c #222222",
"m 	c #030303",
"n 	c #141414",
"o 	c #7C7C7C",
"p 	c #DDDDDD",
"q 	c #767676",
"r 	c #747474",
"s 	c #ECECEC",
"t 	c #D3D3D3",
"u 	c #010101",
"v 	c #A7A7A7",
"w 	c #979797",
"x 	c #A5A5A5",
"y 	c #E7E7E7",
"z 	c #828282",
"A 	c #0E0E0E",
"B 	c #050505",
"C 	c #727272",
"D 	c #B3B3B3",
"E 	c #070707",
"F 	c #C3C3C3",
"G 	c #BCBCBC",
"H 	c #4B4B4B",
"I 	c #4D4D4D",
"J 	c #B8B8B8",
"K 	c #232323",
"L 	c #E5E5E5",
"M 	c #F2F2F2",
"N 	c #A3A3A3",
"O 	c #343434",
"P 	c #5B5B5B",
"Q 	c #9E9E9E",
"R 	c #989898",
"S 	c #D9D9D9",
"T 	c #7A7A7A",
"U 	c #737373",
"V 	c #2F2F2F",
"W 	c #DADADA",
"X 	c #323232",
"Y 	c #121212",
"Z 	c #353535",
"` 	c #101010",
" .	c #D0D0D0",
"..	c #898989",
"+.	c #C9C9C9",
"@.	c #434343",
"#.	c #060606",
"$.	c #CECECE",
"%.	c #C4C4C4",
"&.	c #F0F0F0",
"*.	c #D7D7D7",
"=.	c #575757",
"-.	c #959595",
";.	c #CFCFCF",
">.	c #2C2C2C",
",.	c #414141",
"'.	c #565656",
").	c #ABABAB",
"!.	c #646464",
"~.	c #BBBBBB",
"{.	c #0F0F0F",
"].	c #AEAEAE",
"^.	c #606060",
"/.	c #7B7B7B",
"(.	c #757575",
"_.	c #F1F1F1",
":.	c #515151",
"<.	c #2E2E2E",
"[.	c #C7C7C7",
"}.	c #202020",
"|.	c #131313",
"1.	c #707070",
"2.	c #262626",
"3.	c #535353",
"4.	c #A8A8A8",
"5.	c #DCDCDC",
"6.	c #E9E9E9",
"7.	c #D5D5D5",
"8.	c #1E1E1E",
"9.	c #8F8F8F",
"0.	c #8E8E8E",
"a.	c #868686",
"b.	c #656565",
"c.	c #2D2D2D",
"d.	c #404040",
"e.	c #BABABA",
"f.	c #909090",
"g.	c #CACACA",
"h.	c #676767",
"i.	c #1A1A1A",
"j.	c #6D6D6D",
"k.	c #454545",
"l.	c #4F4F4F",
"m.	c #5D5D5D",
"n.	c #EBEBEB",
"o.	c #3B3B3B",
"p.	c #EDEDED",
"q.	c #BFBFBF",
"r.	c #3C3C3C",
"s.	c #E8E8E8",
"t.	c #636363",
"u.	c #0D0D0D",
"v.	c #B7B7B7",
"w.	c #333333",
"x.	c #3D3D3D",
"y.	c #6F6F6F",
"z.	c #303030",
"A.	c #3A3A3A",
"B.	c #252525",
"C.	c #292929",
"D.	c #6A6A6A",
"E.	c #373737",
"F.	c #A9A9A9",
"G.	c #686868",
"H.	c #494949",
"I.	c #171717",
"J.	c #EAEAEA",
"K.	c #5E5E5E",
"L.	c #777777",
"M.	c #3E3E3E",
"N.	c #484848",
"O.	c #151515",
"P.	c #E4E4E4",
"Q.	c #161616",
"R.	c #C1C1C1",
"S.	c #B5B5B5",
"T.	c #6C6C6C",
"U.	c #BEBEBE",
"V.	c #545454",
"W.	c #CCCCCC",
"X.	c #999999",
"Y.	c #A4A4A4",
"Z.	c #363636",
"`.	c #474747",
" +	c #DFDFDF",
".+	c #AAAAAA",
"++	c #424242",
"@+	c #585858",
"#+	c #6E6E6E",
"$+	c #D8D8D8",
"%+	c #B9B9B9",
"&+	c #1D1D1D",
"*+	c #272727",
"=+	c #C2C2C2",
"-+	c #7D7D7D",
";+	c #1F1F1F",
">+	c #2A2A2A",
",+	c #ACACAC",
"'+	c #242424",
")+	c #878787",
"!+	c #7E7E7E",
"~+	c #A1A1A1",
"{+	c #B2B2B2",
"]+	c #5F5F5F",
"^+	c #838383",
"/+	c #818181",
"(+	c #9B9B9B",
"_+	c #E2E2E2",
":+	c #D1D1D1",
"<+	c #383838",
"[+	c #B6B6B6",
"}+	c #313131",
"|+	c #464646",
"1+	c #B0B0B0",
"2+	c #B4B4B4",
"3+	c #D2D2D2",
"4+	c #4A4A4A",
"5+	c #E3E3E3",
"6+	c #DBDBDB",
"7+	c #5C5C5C",
"8+	c #666666",
"9+	c #9F9F9F",
"0+	c #717171",
"a+	c #A6A6A6",
"b+	c #AFAFAF",
"c+	c #A2A2A2",
". . . . . . . . . . . . . . . . . . . . . . . . + + + + + + + + + . . . @ # $ % & * . = - . = ; . . . @ . + @ + . . . . ",
". . . . . . . . . . . . . . . . . . . . . . . . + + + + + + + + @ + > . * , ' ' ) ! ~ . . { ] . @ . = ^ + . = / . . . . ",
". . . . . . . . . . . . . . . . . . . . . . . . + + + + + + + + . . + . . ( ' _ : ' < [ - . / * . . . + . . . . . . . . ",
". . . . . . . . . . . . . . . . . . . . . . . . + + + + + + + + + } . + . | 1 ' 2 ' ' 3 4 5 . * . . . . . + . . . . . . ",
". . . . . . . . . . . . . . . . . . . . . . . . + + + + + + + + . . . } . . 6 7 ' 8 : ' ' 9 5 . = - 0 @ . + ^ = . . . . ",
". . . . . . . . . . . . . . . . . . . . . . . . + + + + + + + + + a b c d 5 + e f g ' h ' ' i { . . 0 j . . . . . . . . ",
". . . . . . . . . . . . . . . . . . . . . . . . + + + + + + + + k l ' : m n o p ] q ' ' 2 ' _ r s . . 0 . . ^ . . . . . ",
". . . . . . . . . . . . . . . . . . . . . . . . + + + + + + + + t u : ' ' ' ' < v * w 8 ' h ' m x y . / . . - . . . . . ",
". . . . . . . . + + + + + + + + = . + = . . / - = = = = = = = = . z A ' 7 B ' 8 ' C . D 1 ' E ' E F ^ . ] . . + . . . . ",
". . . . . . . . + + + + + + + + . = . . 0 . . = + + + + + + + + - - G H ' ' _ E ' : I ] J K ' u ' H L . . . . . . . . . ",
". . . . . . . . + + + + + + + + . + / ^ . . = ^ . . . . . . . . . ^ . M N O ' ' : ' ' P = Q _ B ' ' R ^ . / . @ . . . . ",
". . . . . . . . + + + + + + + + + . = = . * > . . . . . . . . . { . . . + S T < ' h _ ' U . 4 ' B ' V W . ; . ; . . . . ",
". . . . . . . . + + + + + + + + . 0 . . ^ . . { . . . . . . . . . . 0 M . . s G X ' ' Y ' b * Z ' ` ' [ . + . - . . . . ",
". . . . . . . . + + + + + + + + . @ .  ...D . . . . . . . . . . @ . . @ ^ . . . +.@.' ` ' #.$.%.) u ' V &.. + . . . . . ",
". . . . . . . . + + + + + + + + = . *.=.' 1 -.. + + + + + + + + . ^ ^ . . ^ - = . ;.>.' B ' ,.. '.' #.m ).. ^ . . . . . ",
". . . . . . . . + + + + + + + + @ ^ !.' : ' u $ = = = = = = = = . = + . . . = + - + ~.{.' ' B ~.].: u m ^.^ - + . . . . ",
". . = . - . . . + + . . . + / + . /.A ' E 8 ' u (.. . _.; . @ ^ + + + + + + + + @ . ; U ' ' _ :.&.>.' ' K ] . . = + . . ",
"- 0 @ . @ . + 0 . . . @ . . . + ;.<.' E ' m u u < 6 @ . . . . . + + + + + + + + ^ @ . [.}.g ' |.&.i E ' A %.- ^ = + . . ",
"= / . . = . . . ; . + . . @ . ; 1.' ' 7 ' 8 u m ' 2.S . . - . . + + + + + + + + / 0 . . 3.B ' ' +.4.: ' u Q = . = + . . ",
". * . 5.6.= . . . . ; - . / . 7.8.' m #.' #.' B u ' c 0 = 0 . + + + + + + + + + ^ . / . 9.g u #.0.7.: ' g a.. . = + . . ",
"^ . . b.c.d.% e.&.. . ; ^ . . f.' _ _ m g ' ' 8 #.' O { . + . = + + + + + + + + . . - . g.u ' B h.; i.' ' j.. @ = + . . ",
". + &.c.' ' ' #.'.~.. . ^ . ^ k.' g ' B g ' g u ' B g L . ^ ^ = + + + + + + + + . @ . ^ > 2 m ' l.+ <.' ' m.- . = + . . ",
"/ - n.n ' _ ' u ' o.N - . ^ p.3 g ' ' m ' ' u ' ' _ ' q.. / - = + + + + + + + + + j . - ^ <.E ' r.s.f ' ' t.^ . = + . . ",
". . } u.' E ' u 2 ' < v.. . ] {.u ' : ' ' E ' u B ' m Q . . . . + + + + + + + + . . . = = @.' ' w.t x.' 8 y.- = = + . . ",
"^ . > |.' 8 B ' ' ' ' z.F . Q A ' 8 u #.E ' ' #.m ' _ -.j . . + + + + + + + + + . ^ . - + t.' u A.& B.u : a.. = + + + + ",
". + n.: ' ' ' g u u.' g Z :.C.' ' ' ' g ' ' m ' u ' ' /.. } ^ . + + + + + + + + @ . . + . D.m ' E.e._ ' B F./ . + + + + ",
". = > ) u u ' 8 ' 7 B ' ' ' ' E ' 8 E g ' ' ' ' m ' ' i . = @ . + + + + + + + + / . . ^ . G.8 ' H.d ' ' A *.} . + + + + ",
"^ . ; I.g #.' u ' ' ' g h #.' _ _ m ' ' #.' ' : #.u 8 H.J.. . + + + + + + + + + @ . ^ / + '.' ' K.b.' ' E.; @ = + + + + ",
"0 . / w.' B g ' u m ' ' g ' ' ' : ' g ` #.' ' g B ' ' n L.&.+ . + + + + + + + + . @ 0 . j M.' 8 N.z.u ' /.. . . + + + + ",
"- . j h.' ' g ' g E #.' ' g g u ' ) ! P B ' _ ' g ' g ' O.F.- . + + + + + + + + . @ . . P.2.' 8 Q.#.' _ R.= + . + + + + ",
". . - S.A ' u u ' ' ' u 8 #.' ' ' T.p [ 8 ' 7 m u g #.g ' '.{ . + + + + + + + + . . . . U.h u u ' ' ' V._.= ^ . + + + + ",
". = . ; >.#.u 8 B ' ' u m g g g I.W.. r ' E ' ' u m u : ' I.p.^ + + + + + + + + + . . > X.' m ' h ' : x . . + @ + + + + ",
"+ . + - Y.' #.m ` P Z.B E ' 8 B `.* + t 7 ' Y ' i.8.B 8 B h *.+ ^ . . . . . . = . j . ^ M.' #.g ) ' ^._.. 0 . { . . . . ",
"0 @ = .  +o.' _ .+> ++' ' #.' u @+. . ; | l ' E ..K m ' B E  .+ + @ @ = ^ / = . = p.. b u ' 8 u ' >.v.. . + @ . . . . . ",
". + / + . f.g #+= { C.g _ E u.' I n.. = ^ W.D $+%+&+g ' g ' t . . . . . . . . _.+ . v.*+B B g ' #.d . . . . 0 . . . . . ",
". . . ^ + .+' =+. + 3.' ` ' ' u.' -+> . . = . j '.' ' {.g ;+_.. @ 0 . ; e.1.m.L.b -.*+g ' _ g g U s . 0 + + . = . . . . ",
". = . . @ G m 5.. . G >+' h Q.' #.' '.,+n.&.$.y.' ' ' ) ' K.; M . . a 3.u.E #.' ) ' ' g ' ' ' l.5 . ^ } = @ . = . . . . ",
". / = . . 7.'+| @ . . W.)+d ,.' E ' E O.>.< Y ' ' 7 ' ' _ v.. 0 s.!+1 ' ' ' ' : ' ' {.' {.' '.& . @ + + + = / . . . . . ",
"+ / . . + J., _ ,+; ^ . . ~+8 B ' _ ' ' ' ' ' ' ' g ' u < {+k %.Z A ' m h ' ' ' u.u ' m B ' .+. . 0 . . . . j . . . . . ",
"+ . . - / . F.#.' r.f.Q ]+' u ' g g ' ) ' ' ) ' 8 ' m u ' ;+X ' 8 B m ' ' m _ : ' ' ' g ' B m._.j . + 0 . . + . . . . . ",
". . . . j . n.o 8 ' ' B ' g u.8 ' ' ' ) B ' ' u u u u u u u u u u u u u u u u u ' ' _ ' _ ' : ~+. + . + @ . . = . . . . ",
"- . @ . - . . p m.A ' E 7 ' ' m u.' ' ' 8 ' B _ u u u u u u u u u u u u u u u u B ' E ' #.' ' H.s.. @ * . . &.. - + . + ",
". . ^ . + { . . @ ^+< ' m ) B ' ' ' : ' E m ' ' u u u u u u u u u u u u u u u u m ' g ' m ) ' 8 @.L./+(+_+. . j . . . . ",
". . * . . { ; . . . p 9.( 8.O.B ' ) B.E ' u.u #.u u u u u u u u u u u u u u u u u ' u ' ' 7 _ ' B g ' m w.F.. . . . . . ",
". . / . . + . . ^ + . . = _.:+).v.a q./.' : B B u u u u u u u u u u u u u u u u 8 8 m u ' ' m g ' ' ' ' ' <+[+. ^ / - + ",
"^ . . . = ^ . = . . . . . @ . . . . . W.8.' 8 ' u u u u u u u u u u u u u u u u ' u ' u m ' ' 8 ' _ ' g g ' :.@ . . + = ",
"* / . . ^ ^ . ^ * ^ . . + + + + . . . . f.A ' u u u u u u u u u u u u u u u u u ' ' ' ' m u ' ' m : ' ' Y ' #./+j . . + ",
". @ - . . . . @ . . . = . . . + @ . * . j 2.' {.u u u u u u u u u u u u u u u u _ ' g u ' m m ' l i.2 ' g 7 ' : & _.. . ",
". . . . . . . . . . ^ @ = . . 0 . M . = F.7 ' : m ' B m u ' B m m #.' u.' ) B ' #.#.' ) ' 8.d.Q *  +~+K ' ' #.8 H._.. . ",
". . . . . . . . ^ / = . ^ / . ^ @ . M { ( ' 7 ' ' E.|.' 8 ' ' g ' E ' ) u ' ' 7 ' u E 8 h v.. / @ . = e }+' E ' ' %.^ + ",
". . . . . . . . . . . . + ^ . + @ . . a.' ' u.' H p 7.F.[ |+' #.Y ' B.1+X.|+) ' 8 ' #.' u.=+. . . + ^ . /.8 ) ' ' r . . ",
". . . . . . . . . . / + . . . + { . 2+h B ' u 8 U.. . = 0 =+3 ' 8 ' l # ^ / /+u.' ) B ' ,.k . 0 . / M .  +<+' : ' i . + ",
". . . . . . . . . . * . . ; / = . 3+>.' E ` ' t.. @ &./ . . (.' B ) ' ! . n.V.' m ' ' 4+v.. . @ } = . * . /+' B u !.. . ",
". . . . . . . . . . 0 . . * . . 5+I ' m g ' z.5 M . . . ; . W 8.E ' ' Z.6+7+' _ B ' 8+s . @ { . . . . + . 5+A.' ' 9 . + ",
". . . . . . . . = + - . + . . S m.' ' ' 8 _ D . = . = + ^ . . z.' 8 7 ' X ' ' ' g T s . - j . 0 . ; @ . + . 0.3 l # . 0 ",
". . . . . . . . . . . . ; . 6.r ' ' #.8 g 9+. @ . - = 0 . / 0 <+u m ' E ' g #.E 0+^ . > + . . . + @ . - . @ . F  +. / . ",
". . . . . . . . . + . . 0 . J ' ' : ' : 9.+ . @ + . = . @ . . H.' E u ' ' u ' /.+ + + + + + + + + + + + + + + + + + + + ",
". . . . . . . . . + @ . . + D &+m ' ,.S.. . 0 . + = = . . . ^ i #.' ' ^.h.t.1+. + + + + + + + + + + + + + + + + + + + + ",
". . . . . . . . ^ . . . / . .  +a+~.> . ^ . . ^ . ^ . + . ^ = b+' m 3./ . j . + + + + + + + + + + + + + + + + + + + + + ",
". . . . . . . . . . @ . . = ^ + . . . 0 . . / . . = . @ . 0 . _.c+6 *.. } . { . + + + + + + + + + + + + + + + + + + + + "};
